# xmcd CD database file
#
# Track frame offsets:
#	150
#	14697
#	28915
#	44730
#	59862
#	75280
#	91910
#	106660
#	123160
#	136370
#	156890
#
# Disc length: 2306 seconds
#
# Revision: 3
# Processed by: cddbd v1.5.2PL0 Copyright (c) Steve Scherf et al.
# Submitted via: CDex 1.60beta1
#
DISCID=8f09000b
DTITLE=Suzy Bogguss - Voices In The Wind
DYEAR=1992
DGENRE=Country
TTITLE0=Heartache
TTITLE1=Drive South
TTITLE2=Don't Wanna
TTITLE3=How Come You Go To Her
TTITLE4=Other Side Of The Hill
TTITLE5=In The Day
TTITLE6=Love Goes Without Saying
TTITLE7=Eat At Joe's
TTITLE8=Lovin' A Hurricane
TTITLE9=Letting Go
TTITLE10=Cold Day In July
EXTD=YEAR: 1992
EXTT0=
EXTT1=
EXTT2=
EXTT3=
EXTT4=
EXTT5=
EXTT6=
EXTT7=
EXTT8=
EXTT9=
EXTT10=
PLAYORDER=
